<?xml version="1.0" encoding="UTF-8" standalone="no"?>
<!-- Created with Inkscape (http://www.inkscape.org/) -->

<svg
   xmlns:dc="http://purl.org/dc/elements/1.1/"
   xmlns:cc="http://creativecommons.org/ns#"
   xmlns:rdf="http://www.w3.org/1999/02/22-rdf-syntax-ns#"
   xmlns:svg="http://www.w3.org/2000/svg"
   xmlns="http://www.w3.org/2000/svg"
   xmlns:sodipodi="http://sodipodi.sourceforge.net/DTD/sodipodi-0.dtd"
   xmlns:inkscape="http://www.inkscape.org/namespaces/inkscape"
   width="297mm"
   height="210mm"
   viewBox="0 0 297 210"
   version="1.1"
   id="svg8"
   inkscape:version="0.92.1 r15371"
   sodipodi:docname="drawing.svg">
  <defs
     id="defs2" />
  <sodipodi:namedview
     id="base"
     pagecolor="#ffffff"
     bordercolor="#666666"
     borderopacity="1.0"
     inkscape:pageopacity="0.0"
     inkscape:pageshadow="2"
     inkscape:zoom="0.59254131"
     inkscape:cx="223.9314"
     inkscape:cy="483.99184"
     inkscape:document-units="mm"
     inkscape:current-layer="layer1"
     showgrid="false"
     showguides="false"
     inkscape:object-nodes="false"
     inkscape:window-width="1366"
     inkscape:window-height="710"
     inkscape:window-x="0"
     inkscape:window-y="32"
     inkscape:window-maximized="1" />
  <metadata
     id="metadata5">
    <rdf:RDF>
      <cc:Work
         rdf:about="">
        <dc:format>image/svg+xml</dc:format>
        <dc:type
           rdf:resource="http://purl.org/dc/dcmitype/StillImage" />
        <dc:title></dc:title>
      </cc:Work>
    </rdf:RDF>
  </metadata>
  <g
     inkscape:label="Layer 1"
     inkscape:groupmode="layer"
     id="layer1"
     transform="translate(0,-87)">
    <path
       style="fill:#cccccc;fill-opacity:1;stroke:none;stroke-width:0.26458332px;stroke-linecap:butt;stroke-linejoin:miter;stroke-opacity:1"
       d="m 107.53802,130.762 c 0,0 0.20851,-2.6833 1.82593,-1.82965 2.35928,1.05015 2.15763,2.88005 2.84541,3.8639 l 4.3145,2.16662 c 0,0 1.86456,1.05584 3.05518,0 l 7.00896,-4.96467 -0.0899,-5.99805 c 0,0 -0.51669,-4.29074 -0.83119,-4.40306 0,0 0.0674,-2.89793 -1.39281,-3.16751 l -22.17255,-10.76054 c 0,0 -3.414622,-0.83119 -8.401761,2.62836 0,0 -3.279831,-0.35943 -7.2336,0.67394 0,0 -1.864561,0.65147 -3.751588,3.05518 0,0 -1.227198,1.65876 -0.87612,2.83054 0.359418,1.19961 -0.792103,1.95781 1.75224,3.79652 0,0 0.577188,-2.33402 2.604458,-0.92217 2.02727,1.41185 2.389283,3.87353 2.389283,3.87353 z"
       id="path4531"
       inkscape:connector-curvature="0"
       sodipodi:nodetypes="cccccccccccccscscc" />
    <g
       id="g4728"
       transform="translate(-0.08065757,-0.24197271)">
      <ellipse
         ry="2.6508222"
         rx="2.5609639"
         cy="131.21129"
         cx="110.48088"
         id="path4527"
         style="opacity:1;fill:#1a1a1a;fill-opacity:1;stroke:none;stroke-width:0.31636187;stroke-opacity:1" />
      <ellipse
         transform="matrix(0.61103863,-0.79160078,0.69906628,0.71505688,0,0)"
         ry="1.4340191"
         rx="1.2862911"
         cy="168.98689"
         cx="-13.519176"
         id="path4508-3"
         style="opacity:1;fill:#cccccc;fill-opacity:1;stroke:none;stroke-width:0.50085366;stroke-opacity:1" />
      <ellipse
         transform="matrix(0.60619289,-0.79531766,0.69453283,0.71946101,0,0)"
         ry="0.86025679"
         rx="0.77276015"
         cy="169.02237"
         cx="-12.530485"
         id="path4508"
         style="opacity:1;fill:#4d4d4d;fill-opacity:1;stroke:none;stroke-width:0.30067697;stroke-opacity:1" />
    </g>
    <path
       style="fill:#afc6e9;fill-opacity:1;stroke:none;stroke-width:0.26458332px;stroke-linecap:butt;stroke-linejoin:miter;stroke-opacity:1"
       d="m 87.00114,113.47351 c 0,0 0.441121,-1.60408 2.145453,-2.68683 1.704332,-1.08275 1.399182,-1.00724 4.547184,-2.49102 l -3.364176,2.9923 z"
       id="path4648"
       inkscape:connector-curvature="0"
       sodipodi:nodetypes="csccc" />
    <g
       id="g4723"
       transform="matrix(0.86865774,0,0,0.86865774,11.584166,15.914223)">
      <ellipse
         ry="2.6508222"
         rx="2.5609639"
         cy="119.8698"
         cx="86.281815"
         id="path4527-2"
         style="opacity:1;fill:#1a1a1a;fill-opacity:1;stroke:none;stroke-width:0.31636187;stroke-opacity:1" />
      <ellipse
         transform="matrix(0.61103862,-0.79160079,0.69906628,0.71505688,0,0)"
         ry="1.4340191"
         rx="1.2862911"
         cy="142.64552"
         cx="-22.986168"
         id="path4508-3-9"
         style="opacity:1;fill:#cccccc;fill-opacity:1;stroke:none;stroke-width:0.50085366;stroke-opacity:1" />
      <ellipse
         transform="matrix(0.60619289,-0.79531766,0.69453284,0.71946101,0,0)"
         ry="0.86025679"
         rx="0.77276015"
         cy="142.59756"
         cx="-22.17457"
         id="path4508-1"
         style="opacity:1;fill:#4d4d4d;fill-opacity:1;stroke:none;stroke-width:0.30067697;stroke-opacity:1" />
    </g>
    <path
       style="fill:#999999;stroke:none;stroke-width:0.99999994px;stroke-linecap:butt;stroke-linejoin:miter;stroke-opacity:1"
       d="m 352.96094,87.464844 c -4.99939,-0.03315 -9.30274,1.792969 -9.30274,1.792968 0,0 -19.31296,13.038088 -25.76758,13.628908 l -7.47851,-3.662111 c -0.73409,1.921781 -1.45005,4.605691 -1.19595,6.565941 0.59434,4.58491 -1.63425,10.39347 9.06385,17.27081 -0.14368,-0.52484 1.13166,-9.06215 7.5088,-5.04158 9.36749,5.9059 7.42495,12.43608 7.40017,12.43844 l 73.29735,34.98123 c 0,0 0.78926,-10.14241 6.90234,-6.91601 8.91697,3.96907 8.15442,10.88506 10.75391,14.60351 l 16.30664,8.18946 c 0,0 3.26187,1.84279 6.76367,1.76757 v -16.8457 l -0.0195,-0.01 c 0.11637,-11.82078 0.2707,-26.95797 0.35156,-31.32422 0.12473,-6.73452 -3.86523,-7.60743 -3.86523,-7.60742 0,0 -76.69995,-34.670447 -83.8086,-38.287114 -2.22145,-1.130197 -4.6377,-1.529854 -6.91015,-1.544922 z"
       id="path4533"
       inkscape:connector-curvature="0"
       sodipodi:nodetypes="ccccccscccccccccccsc"
       transform="matrix(0.26458333,0,0,0.26458333,0,87)" />
    <path
       style="fill:#333333;fill-opacity:1;stroke:none;stroke-width:0.26458332px;stroke-linecap:butt;stroke-linejoin:miter;stroke-opacity:1"
       d="m 85.530821,114.58578 c 0,0 4.001744,-0.9618 4.396764,-2.42166 0,0 0.291973,-0.30915 1.185066,-0.15457 0.893093,0.15457 2.730804,0.87591 2.730804,0.87591 0,0 -0.274799,3.2117 -2.335781,3.45215 -2.060985,0.24045 -5.976853,-1.75183 -5.976853,-1.75183 z"
       id="path4537"
       inkscape:connector-curvature="0" />
    <path
       style="fill:#afc6e9;fill-opacity:1;stroke:none;stroke-width:0.20249698px;stroke-linecap:butt;stroke-linejoin:miter;stroke-opacity:1"
       d="m 86.853287,114.53226 c 0,0 3.062707,-0.73611 3.365032,-1.8534 0,0 0.22346,-0.23661 0.906982,-0.1183 0.683523,0.1183 2.090002,0.67037 2.090002,0.67037 0,0 -0.210316,2.45805 -1.787674,2.64208 -1.57736,0.18402 -4.574342,-1.34075 -4.574342,-1.34075 z"
       id="path4537-6"
       inkscape:connector-curvature="0" />
    <path
       style="fill:#333333;stroke:none;stroke-width:0.26458332px;stroke-linecap:butt;stroke-linejoin:miter;stroke-opacity:1"
       d="m 87.626155,113.77856 c 0,0 -0.566772,-0.44655 -1.116368,0.0859 -0.549595,0.53242 -0.377846,1.94076 -0.377846,1.94076 0,0 0.171749,0.3435 0.549595,0.44655 0.377847,0.10304 0.996138,-0.97897 0.996138,-0.97897 z"
       id="path4564"
       inkscape:connector-curvature="0" />
    <path
       style="fill:#afc6e9;stroke:none;stroke-width:0.26538947px;stroke-linecap:butt;stroke-linejoin:miter;stroke-opacity:1;fill-opacity:1"
       d="m 87.438941,115.4325 0.02283,-1.5767 -0.776563,0.39019 -0.01523,1.76782 z"
       id="path4570"
       inkscape:connector-curvature="0" />
    <path
       style="fill:#afc6e9;stroke:none;stroke-width:0.26458332px;stroke-linecap:butt;stroke-linejoin:miter;stroke-opacity:1;fill-opacity:1"
       d="m 95.751633,113.98741 c 0,0 -0.791176,-0.19297 -0.906957,0.32805 -0.115785,0.52102 -0.231566,4.11026 0.424532,4.59268 0.656097,0.48242 3.126112,1.64024 5.441752,2.5858 0,0 1.31219,0.5982 1.44727,-1.58236 0.13508,-2.18055 0.46313,-2.58579 -0.71399,-3.24189 -1.17711,-0.6561 -5.692607,-2.68228 -5.692607,-2.68228 z"
       id="path4574"
       inkscape:connector-curvature="0" />
    <rect
       style="opacity:1;fill:#004455;fill-opacity:1;stroke:none;stroke-width:0.16744475;stroke-opacity:1"
       id="rect4578"
       width="4.4190092"
       height="0.98414618"
       x="145.8046"
       y="60.079468"
       ry="0.30617881"
       transform="rotate(26.060493)" />
    <rect
       style="opacity:1;fill:#004455;fill-opacity:1;stroke:none;stroke-width:0.16744475;stroke-opacity:1"
       id="rect4578-7"
       width="4.4190092"
       height="0.98414618"
       x="-67.499245"
       y="146.3105"
       ry="0.30617884"
       transform="rotate(-64.973736)" />
    <rect
       style="opacity:1;fill:#004455;fill-opacity:1;stroke:none;stroke-width:0.1759987;stroke-opacity:1"
       id="rect4578-7-5"
       width="4.8820295"
       height="0.98414695"
       x="-133.6442"
       y="98.795929"
       ry="0.30617908"
       transform="matrix(-0.07938611,-0.99684394,0.9968867,-0.0788474,0,0)" />
    <rect
       style="opacity:1;fill:#004455;fill-opacity:1;stroke:none;stroke-width:0.1759987;stroke-opacity:1"
       id="rect4578-7-5-3"
       width="4.8820295"
       height="0.98414695"
       x="-8.6401052"
       y="165.7666"
       ry="0.30617908"
       transform="matrix(0.71890625,-0.69510704,0.69471844,0.71928179,0,0)" />
    <path
       style="fill:none;stroke:none;stroke-width:0.26458332px;stroke-linecap:butt;stroke-linejoin:miter;stroke-opacity:1"
       d="m 125.64195,119.60281 -6.1373,4.1181 c 0,0 -0.5845,0.47823 -0.55793,1.46127 0.0266,0.98303 -0.0797,3.79928 0.45166,3.45389 0.53137,-0.34539 4.75574,-2.63027 6.90778,-4.78231 l -0.0797,-2.28489 z"
       id="path4625"
       inkscape:connector-curvature="0" />
    <path
       style="fill:#ff5555;stroke:none;stroke-width:0.26458332px;stroke-linecap:butt;stroke-linejoin:miter;stroke-opacity:1;fill-opacity:1"
       d="m 118.42424,122.64929 c 0,0 0.84402,1.08517 1.06508,3.3359 l -0.0402,5.24499 -1.12537,0.68325 z"
       id="path4627"
       inkscape:connector-curvature="0" />
    <path
       style="fill:#afc6e9;fill-opacity:1;stroke:none;stroke-width:0.26458332px;stroke-linecap:butt;stroke-linejoin:miter;stroke-opacity:1"
       d="m 119.36683,123.87146 6.30727,-4.28736 c 0.16973,0.18935 0.3148,1.01964 0.46492,1.71872 l 0.30074,2.14576 -6.59234,4.41921 c 0,0 0.49805,-2.63821 -0.48059,-3.99633 z"
       id="path4644"
       inkscape:connector-curvature="0"
       sodipodi:nodetypes="cccccc" />
    <path
       style="fill:#ffffff;stroke:none;stroke-width:0.26458332px;stroke-linecap:butt;stroke-linejoin:miter;stroke-opacity:1"
       d="m 83.732835,114.1753 c 0,0 -0.862193,-0.66168 -0.76194,-2.42617 l -0.701783,1.0226 -0.401018,1.16295 v 0.9424 l 0.140356,0.16041 1.804588,-0.88224 z"
       id="path4646"
       inkscape:connector-curvature="0" />
    <path
       style="opacity:1;fill:#333333;fill-opacity:1;stroke:#b3b3b3;stroke-width:1.8897638;stroke-opacity:1;stroke-miterlimit:4;stroke-dasharray:none"
       d="M 687.45703 79.236328 C 687.22877 79.23619 686.99923 79.323243 686.82422 79.498047 L 641.96094 124.30664 C 641.61091 124.65625 641.61133 125.22028 641.96094 125.57031 L 652.03711 135.6582 L 649.17383 138.68164 L 624.06641 112.56055 C 622.51791 110.94955 620.1043 110.69905 618.2832 111.83203 A 23.457079 23.457079 0 0 0 611.61523 89.007812 A 23.457079 23.457079 0 0 0 611.09375 88.552734 L 599.7793 100.58594 L 584.90625 92.339844 L 584.87891 92.269531 C 584.59344 91.529039 583.76588 91.163756 583.02539 91.449219 C 582.73026 91.562993 582.49852 91.763907 582.33984 92.009766 C 582.22148 92.114927 582.11455 92.238039 582.0332 92.384766 C 581.64839 93.078839 581.89772 93.947219 582.5918 94.332031 L 582.60547 94.339844 L 589.30664 111.7207 L 578.99609 122.68555 A 23.457079 23.457079 0 0 0 579.47656 123.18359 A 23.457079 23.457079 0 0 0 600.92188 128.91602 C 600.23681 130.56543 600.54045 132.52815 601.86133 133.90234 L 627.97656 161.07227 L 625.53711 163.64844 L 614.4043 152.50195 C 614.05469 152.15192 613.49066 152.15235 613.14062 152.50195 L 568.27734 197.31055 C 567.92731 197.66015 567.92774 198.22419 568.27734 198.57422 L 591.00977 221.33398 C 591.35937 221.68401 591.92341 221.68554 592.27344 221.33594 L 637.13672 176.52539 C 637.48675 176.17578 637.48828 175.6137 637.13867 175.26367 L 628.17773 166.29102 L 630.56641 163.76758 L 657.23047 191.50781 C 659.01066 193.35985 661.93507 193.41691 663.78711 191.63672 L 679.30469 176.7207 C 681.15673 174.94052 681.21573 172.0161 679.43555 170.16406 L 651.76562 141.37891 L 654.67773 138.30273 L 664.69336 148.33008 C 665.04297 148.68011 665.607 148.68164 665.95703 148.33203 L 710.82031 103.52148 C 711.17034 103.17188 711.16992 102.6098 710.82031 102.25977 L 688.08789 79.498047 C 687.91309 79.323032 687.6853 79.236466 687.45703 79.236328 z M 586.51172 96.505859 L 597.75391 102.73828 L 591.48438 109.40625 L 586.51172 96.505859 z "
       id="rect4756"
       transform="matrix(0.26458333,0,0,0.26458333,0,87)" />
    <path
       style="opacity:1;fill:#e6e6e6;fill-opacity:1;stroke:none;stroke-width:0.42642465;stroke-miterlimit:4;stroke-dasharray:none;stroke-opacity:1"
       d="m 223.00955,114.83358 a 6.6871987,5.190763 29.348319 0 0 -4.1982,2.30425 6.6871987,5.190763 29.348319 0 0 -0.25528,0.56844 6.6871987,5.190763 29.348319 0 0 -6.6151,1.98644 6.6871987,5.190763 29.348319 0 0 -0.48524,1.48777 6.6871987,5.190763 29.348319 0 0 -4.46381,2.3027 6.6871987,5.190763 29.348319 0 0 3.28455,7.80211 6.6871987,5.190763 29.348319 0 0 2.08825,0.82785 c 0.0162,0.0637 0.0565,0.12076 0.11989,0.15297 l 26.51517,13.46222 c 0.0364,0.0185 0.0747,0.0237 0.11266,0.0227 a 6.6871987,5.190763 29.348319 0 0 0.21445,0.13177 6.6871987,5.190763 29.348319 0 0 8.37314,-1.24695 6.6871987,5.190763 29.348319 0 0 -2.82515,-7.51943 6.6871987,5.190763 29.348319 0 0 -3.69487,-6.72001 6.6871987,5.190763 29.348319 0 0 -3.22719,-1.02319 6.6871987,5.190763 29.348319 0 0 -3.78737,-5.25394 6.6871987,5.190763 29.348319 0 0 -3.42408,-1.0418 6.6871987,5.190763 29.348319 0 0 -3.5574,-7.18664 6.6871987,5.190763 29.348319 0 0 -4.17442,-1.0573 z m 2.50682,11.14764 a 6.6871987,5.190763 29.348319 0 0 0.004,5.1e-4 6.6871987,5.190763 29.348319 0 0 -5.2e-4,0.001 z"
       id="path4836"
       inkscape:connector-curvature="0" />
  </g>
</svg>
